{"accessors":[{"bufferView":0,"componentType":5126,"count":30126,"max":[7.503341197967529,3.1809842586517334,10.563949584960938],"min":[-7.707691669464111,-1.701777458190918,-10.539779663085938],"type":"VEC3"},{"bufferView":1,"componentType":5125,"count":147378,"type":"SCALAR"},{"bufferView":2,"componentType":5126,"count":30126,"type":"VEC2"},{"bufferView":3,"componentType":5126,"count":34868,"max":[7.695993900299072,3.228947401046753,10.564783096313477],"min":[-7.515041828155518,-2.6602468490600586,-10.520330429077148],"type":"VEC3"},{"bufferView":4,"componentType":5125,"count":178026,"type":"SCALAR"},{"bufferView":5,"componentType":5126,"count":34868,"type":"VEC2"},{"bufferView":6,"componentType":5126,"count":10659,"max":[7.720667362213135,2.831902503967285,10.536897659301758],"min":[-7.6125054359436035,-1.7393178939819336,-10.276568412780762],"type":"VEC3"},{"bufferView":7,"componentType":5125,"count":49626,"type":"SCALAR"},{"bufferView":8,"componentType":5126,"count":10659,"type":"VEC2"}],"asset":{"generator":"Polycam","version":"2.0"},"bufferViews":[{"buffer":0,"byteLength":361512,"byteOffset":0},{"buffer":0,"byteLength":589512,"byteOffset":361512},{"buffer":0,"byteLength":241008,"byteOffset":951024},{"buffer":0,"byteLength":418416,"byteOffset":1192032},{"buffer":0,"byteLength":712104,"byteOffset":1610448},{"buffer":0,"byteLength":278944,"byteOffset":2322552},{"buffer":0,"byteLength":127908,"byteOffset":2601496},{"buffer":0,"byteLength":198504,"byteOffset":2729404},{"buffer":0,"byteLength":85272,"byteOffset":2927908}],"buffers":[{"uri":"raw_geometry.bin","byteLength":3013180}],"images":[{"uri":"textures/816b4a21959a5c3cf10912c1982944c7.jpg"},{"uri":"textures/90717326e1ce5eac8785cba919f6ff8c.jpg"},{"uri":"textures/1e77ef23a8267afbc6e57f2ec26e65c9.jpg"}],"materials":[{"pbrMetallicRoughness":{"baseColorTexture":{"index":0},"metallicFactor":0}},{"pbrMetallicRoughness":{"baseColorTexture":{"index":1},"metallicFactor":0}},{"pbrMetallicRoughness":{"baseColorTexture":{"index":2},"metallicFactor":0}}],"meshes":[{"primitives":[{"attributes":{"POSITION":0,"TEXCOORD_0":2},"indices":1,"material":0,"mode":4},{"attributes":{"POSITION":3,"TEXCOORD_0":5},"indices":4,"material":1,"mode":4},{"attributes":{"POSITION":6,"TEXCOORD_0":8},"indices":7,"material":2,"mode":4}]}],"nodes":[{"mesh":0}],"scene":0,"scenes":[{"nodes":[0]}],"textures":[{"source":0},{"source":1},{"source":2}]}