<svg width="1779" height="1770" xmlns="http://www.w3.org/2000/svg"><rect width="1779" height="1770" fill="#ffffff"/><g id="story-0"><path d="M 701.5515744998052,816.0517452359322 L 701.5515744998052,624.3523969919686 L 589.9681756201736,624.3523969919686 L 101.28981557397665,624.3523969919686 L 50,624.3523969919686 L 50,1081.5468950002162 L 91.87268457612718,1081.5468950002162 L 383.0583874672219,1081.5468950002164 L 567.5487587871143,1081.5468950002164 L 701.5515744998055,1081.5468950002166 Z" fill="#f9fafb" stroke="#374151" stroke-width="2"/><text x="393.83925455240296" y="872.1195808204887" text-anchor="middle" dominant-baseline="middle" font-size="12" fill="#374151">Other 1</text><path d="M 98.3938599130871,1094.5892456741362 L 98.39385991308677,1487.764196007364 L 410.88117323916043,1487.7641960073636 L 410.88117323916043,1500.8068345585934 L 561.0275834501565,1500.8068345585932 L 561.0275834501542,1494.28590083004 L 561.0275834501542,1094.5892456741365 L 383.058387467222,1094.5892456741365 Z" fill="#fef3c7" stroke="#374151" stroke-width="2"/><text x="385.58640051527277" y="1344.3994623730455" text-anchor="middle" dominant-baseline="middle" font-size="12" fill="#374151">Kitchen</text><path d="M 701.551574499805,1500.8070761670008 L 574.0699341240811,1500.8070761670008 L 574.0699341240811,1513.8491852325142 L 410.88117323916,1513.849185232514 L 410.88117323916003,1712.0059328899536 L 701.5515744998049,1712.005932889953 Z" fill="#f9fafb" stroke="#374151" stroke-width="2"/><text x="562.1675606210155" y="1575.554064763156" text-anchor="middle" dominant-baseline="middle" font-size="12" fill="#374151">Other 5</text><path d="M 574.0699341240744,1088.0680703371766 L 574.0699341240744,1487.7647254930796 L 701.5515744998054,1487.7647254930798 L 701.5515744998054,1094.4580614036058 L 701.5515744997903,1088.0680703371766 Z" fill="#f9fafb" stroke="#374151" stroke-width="2"/><text x="650.55891834951" y="1249.2247306128236" text-anchor="middle" dominant-baseline="middle" font-size="12" fill="#374151">Other 6</text><path d="M 1181.6555487677565,1087.9368860666455 L 1181.6555487677567,822.5729205728841 L 1175.134373435133,822.5729205728925 L 899.9655675162066,822.5729205728929 L 899.9655675162066,1087.9368860666452 L 1079.3704814629118,1087.9368860666457 Z" fill="#dbeafe" stroke="#374151" stroke-width="2"/><text x="1069.6245145776618" y="955.2549033197675" text-anchor="middle" dominant-baseline="middle" font-size="12" fill="#374151">Bathroom 1</text><path d="M 799.2622145313994,50 L 596.4893509571339,50 L 596.4893509571338,393.2263026454538 L 708.0727498367653,393.22630264545376 L 799.2622145313993,393.22630264545387 Z" fill="#f9fafb" stroke="#374151" stroke-width="2"/><text x="699.9151761627664" y="255.9357815872723" text-anchor="middle" dominant-baseline="middle" font-size="12" fill="#374151">Other 4</text><path d="M 714.5939251737249,1500.8070761669997 L 714.5939251737249,1712.0059328899533 L 879.0373337440777,1712.005932889953 L 879.0373337440766,1578.9320980672062 L 879.0373337440749,1500.8070761669994 Z" fill="#f9fafb" stroke="#374151" stroke-width="2"/><text x="813.2599703159358" y="1600.9116232362226" text-anchor="middle" dominant-baseline="middle" font-size="12" fill="#374151">Other 8</text><path d="M 893.4443921792468,1100.979236740566 L 714.5939251737254,1100.9792367405657 L 714.5939251737256,1487.7647254930803 L 885.5585090810367,1487.7647254930798 L 1181.6555487677563,1487.7647254930794 L 1181.6555487677563,1100.9792367405673 L 1079.3704814629118,1100.979236740566 Z" fill="#fce7f3" stroke="#374151" stroke-width="2"/><text x="950.1246186580227" y="1266.744446205929" text-anchor="middle" dominant-baseline="middle" font-size="12" fill="#374151">Bedroom 1</text><path d="M 893.4443921792468,816.0517452359325 L 708.0727498367653,816.0517452359323 L 708.0727498367654,1088.0680703371763 L 708.0727498367654,1094.4580614036058 L 893.4443921792468,1094.4580614036058 Z" fill="#f9fafb" stroke="#374151" stroke-width="2"/><text x="782.221406773758" y="981.8175367232507" text-anchor="middle" dominant-baseline="middle" font-size="12" fill="#374151">Other 7</text><path d="M 583.4470002832137,50.00000000000001 L 107.81099091093698,50.00000000000023 L 107.81099091093675,611.3100463180484 L 583.4470002832135,611.3100463180485 L 583.4470002832136,399.74747798241384 Z" fill="#dcfce7" stroke="#374151" stroke-width="2"/><text x="393.1925965343029" y="344.47351412370216" text-anchor="middle" dominant-baseline="middle" font-size="12" fill="#374151">Living Room 2</text><path d="M 714.5939251737256,399.7474779824138 L 714.5939251737254,617.8312216550084 L 714.5939251737254,809.5305698989719 L 893.4443921792468,809.5305698989722 L 1168.613198098173,809.5305698989724 L 1168.613198098173,409.45935666735016 L 799.2622145314028,409.4593566673502 L 799.2622145314028,399.7474779824138 Z" fill="#f9fafb" stroke="#374151" stroke-width="2"/><text x="871.6221241199468" y="583.1045750814317" text-anchor="middle" dominant-baseline="middle" font-size="12" fill="#374151">Other 2</text><path d="M 596.4893509571339,406.2686533193739 L 596.4893509571339,611.3100463180482 L 701.5515744998054,611.3100463180482 L 701.5515744998054,406.2686533193739 Z" fill="#f9fafb" stroke="#374151" stroke-width="2"/><text x="649.0204627284696" y="508.78934981871106" text-anchor="middle" dominant-baseline="middle" font-size="12" fill="#374151">Other 9</text><path d="M 1175.134373435133,396.41700599343 L 1181.6555487717317,396.4170059934315 L 1181.6555487717317,50.00000000000023 L 812.3045652053195,50.00000000000001 L 812.3045652053195,396.41700599343 Z" fill="#fce7f3" stroke="#374151" stroke-width="2"/><text x="1032.610920277847" y="257.85020359605835" text-anchor="middle" dominant-baseline="middle" font-size="12" fill="#374151">Bedroom 2</text></g><g id="story-1"><path d="M 1244.6979390017966,1135.0143349521707 L 1244.6979390017966,1173.6663793189548 L 1292.415220386964,1173.6663793189548 L 1292.415220386964,1135.0143349521707 Z" fill="#f9fafb" stroke="#374151" stroke-width="2"/><text x="1268.5565796943802" y="1154.3403571355627" text-anchor="middle" dominant-baseline="middle" font-size="12" fill="#374151">Other</text><path d="M 1534.4585970259952,452.22922616940514 L 1534.4585970259952,200.34020916571512 L 1715.9577856061262,200.34020916571515 L 1715.9577856061262,50 L 1231.655642118323,50 L 1231.655642118323,452.22922616940514 Z" fill="#f9fafb" stroke="#374151" stroke-width="2"/><text x="1494.024008250148" y="234.1898117783734" text-anchor="middle" dominant-baseline="middle" font-size="12" fill="#374151">Other 3</text><path d="M 1729,452.2292261694052 L 1729,213.3825598396357 L 1722.4789609430861,213.38255983963538 L 1547.5009476999153,213.3825598396354 L 1547.5009476999153,452.22922616940514 Z" fill="#dbeafe" stroke="#374151" stroke-width="2"/><text x="1655.0961712685832" y="308.92122637154336" text-anchor="middle" dominant-baseline="middle" font-size="12" fill="#374151">Bathroom 2</text><path d="M 1231.655642118323,465.27157684332525 L 1231.6556421183227,1121.9719842782504 L 1238.1767636648362,1121.9719842782504 L 1305.4575710608844,1121.971984278251 L 1305.4575710608842,1186.7087299928755 L 1238.1767636648362,1186.7087299928753 L 1231.655548771732,1186.708729992873 L 1231.6555487717317,1513.851231449349 L 1729,1513.8512314493485 L 1729,465.27157684332536 L 1540.9797723629554,465.27157684332536 Z" fill="#dcfce7" stroke="#374151" stroke-width="2"/><text x="1364.8064385085913" y="1031.7781214765498" text-anchor="middle" dominant-baseline="middle" font-size="12" fill="#374151">Living Room 1</text></g><text x="50" y="30" font-size="16" font-weight="bold" fill="#111827">First Floor</text><text x="1231.6555487717317" y="30" font-size="16" font-weight="bold" fill="#111827">Second Floor</text></svg>