{"accessors":[{"bufferView":0,"componentType":5126,"count":28146,"max":[3.93182373046875,5.112285137176514,5.270680904388428],"min":[-5.847661972045898,-1.4248905181884766,-10.65980052947998],"type":"VEC3"},{"bufferView":1,"componentType":5125,"count":142584,"type":"SCALAR"},{"bufferView":2,"componentType":5126,"count":28146,"type":"VEC2"}],"asset":{"generator":"Polycam","version":"2.0"},"bufferViews":[{"buffer":0,"byteLength":337752,"byteOffset":0},{"buffer":0,"byteLength":570336,"byteOffset":337752},{"buffer":0,"byteLength":225168,"byteOffset":908088}],"buffers":[{"uri":"raw_geometry.bin","byteLength":1133256}],"images":[{"uri":"textures/7e16f3b7f41f63d8404184af02a16de3.jpg"}],"materials":[{"pbrMetallicRoughness":{"baseColorTexture":{"index":0},"metallicFactor":0}}],"meshes":[{"primitives":[{"attributes":{"POSITION":0,"TEXCOORD_0":2},"indices":1,"material":0,"mode":4}]}],"nodes":[{"mesh":0}],"scene":0,"scenes":[{"nodes":[0]}],"textures":[{"source":0}]}