{"accessors":[{"bufferView":0,"componentType":5123,"count":38211,"type":"SCALAR"},{"bufferView":1,"componentType":5126,"count":7958,"max":[4.330802917480469,1.2467842102050781,6.518387794494629],"min":[-4.311640739440918,-1.3679676055908203,-6.50900936126709],"type":"VEC3"},{"bufferView":2,"componentType":5126,"count":7958,"type":"VEC2"},{"bufferView":3,"componentType":5123,"count":56154,"type":"SCALAR"},{"bufferView":4,"componentType":5126,"count":11041,"max":[4.348467826843262,1.247485637664795,6.519366264343262],"min":[-4.254124641418457,-1.3661346435546875,-6.406257152557373],"type":"VEC3"},{"bufferView":5,"componentType":5126,"count":11041,"type":"VEC2"},{"bufferView":6,"componentType":5123,"count":44298,"type":"SCALAR"},{"bufferView":7,"componentType":5126,"count":8579,"max":[4.347712993621826,1.3016419410705566,6.237362861633301],"min":[-4.169870376586914,-1.3682608604431152,-6.50900936126709],"type":"VEC3"},{"bufferView":8,"componentType":5126,"count":8579,"type":"VEC2"},{"bufferView":9,"componentType":5123,"count":40290,"type":"SCALAR"},{"bufferView":10,"componentType":5126,"count":8063,"max":[4.327531814575195,1.230085015296936,6.679057598114014],"min":[-4.347155570983887,-1.3781702518463135,-6.501550197601318],"type":"VEC3"},{"bufferView":11,"componentType":5126,"count":8063,"type":"VEC2"},{"bufferView":12,"componentType":5123,"count":45990,"type":"SCALAR"},{"bufferView":13,"componentType":5126,"count":9067,"max":[4.3158721923828125,1.2441997528076172,6.5629563331604],"min":[-4.061919212341309,-1.364895224571228,-6.464920520782471],"type":"VEC3"},{"bufferView":14,"componentType":5126,"count":9067,"type":"VEC2"},{"bufferView":15,"componentType":5123,"count":40401,"type":"SCALAR"},{"bufferView":16,"componentType":5126,"count":7985,"max":[4.299810886383057,1.2383222579956055,6.677119731903076],"min":[-4.271988868713379,-1.3624763488769531,-6.5065741539001465],"type":"VEC3"},{"bufferView":17,"componentType":5126,"count":7985,"type":"VEC2"},{"bufferView":18,"componentType":5123,"count":57441,"type":"SCALAR"},{"bufferView":19,"componentType":5126,"count":11529,"max":[4.327531814575195,1.276440143585205,6.669483661651611],"min":[-4.353682518005371,-1.3796067237854004,-6.498990535736084],"type":"VEC3"},{"bufferView":20,"componentType":5126,"count":11529,"type":"VEC2"},{"bufferView":21,"componentType":5123,"count":75585,"type":"SCALAR"},{"bufferView":22,"componentType":5126,"count":15799,"max":[4.317086696624756,1.2644059658050537,6.512465953826904],"min":[-4.353048324584961,-1.3796067237854004,-6.546261310577393],"type":"VEC3"},{"bufferView":23,"componentType":5126,"count":15799,"type":"VEC2"},{"bufferView":24,"componentType":5123,"count":7710,"type":"SCALAR"},{"bufferView":25,"componentType":5126,"count":1760,"max":[2.0516774654388428,3.413409471511841,4.486824989318848],"min":[-1.7348740100860596,1.2300848960876465,-6.520716667175293],"type":"VEC3"},{"bufferView":26,"componentType":5126,"count":1760,"type":"VEC2"},{"bufferView":27,"componentType":5123,"count":2955,"type":"SCALAR"},{"bufferView":28,"componentType":5126,"count":695,"max":[1.8115124702453613,3.4858622550964355,4.28938627243042],"min":[-1.7044880390167236,1.230085015296936,-6.497535228729248],"type":"VEC3"},{"bufferView":29,"componentType":5126,"count":695,"type":"VEC2"},{"bufferView":30,"componentType":5123,"count":13239,"type":"SCALAR"},{"bufferView":31,"componentType":5126,"count":2691,"max":[2.0530266761779785,3.494539737701416,4.816524028778076],"min":[-1.791536569595337,1.2300848960876465,-6.533937454223633],"type":"VEC3"},{"bufferView":32,"componentType":5126,"count":2691,"type":"VEC2"},{"bufferView":33,"componentType":5123,"count":19584,"type":"SCALAR"},{"bufferView":34,"componentType":5126,"count":3948,"max":[2.0358152389526367,3.483543634414673,4.376648426055908],"min":[-1.7614953517913818,1.2300848960876465,-6.359640121459961],"type":"VEC3"},{"bufferView":35,"componentType":5126,"count":3948,"type":"VEC2"},{"bufferView":36,"componentType":5123,"count":20472,"type":"SCALAR"},{"bufferView":37,"componentType":5126,"count":4014,"max":[2.0843703746795654,3.441077709197998,4.817027568817139],"min":[-1.8668997287750244,1.2300848960876465,-6.531299591064453],"type":"VEC3"},{"bufferView":38,"componentType":5126,"count":4014,"type":"VEC2"},{"bufferView":39,"componentType":5123,"count":23589,"type":"SCALAR"},{"bufferView":40,"componentType":5126,"count":4663,"max":[2.073875904083252,3.5107333660125732,4.794640064239502],"min":[-1.7645275592803955,1.3352259397506714,-6.4481353759765625],"type":"VEC3"},{"bufferView":41,"componentType":5126,"count":4663,"type":"VEC2"},{"bufferView":42,"componentType":5123,"count":24129,"type":"SCALAR"},{"bufferView":43,"componentType":5126,"count":4890,"max":[4.329093933105469,3.491420269012451,4.343840599060059],"min":[-1.7736356258392334,1.2300848960876465,-6.527721881866455],"type":"VEC3"},{"bufferView":44,"componentType":5126,"count":4890,"type":"VEC2"},{"bufferView":45,"componentType":5123,"count":24390,"type":"SCALAR"},{"bufferView":46,"componentType":5126,"count":5298,"max":[4.337008476257324,3.539374589920044,4.77869987487793],"min":[-1.792823076248169,1.2186129093170166,-6.526828289031982],"type":"VEC3"},{"bufferView":47,"componentType":5126,"count":5298,"type":"VEC2"}],"asset":{"version":"2.0"},"bufferViews":[{"buffer":0,"byteLength":76424,"target":34963,"byteOffset":0},{"buffer":0,"byteLength":95496,"byteOffset":76424,"target":34962},{"buffer":0,"byteLength":63664,"byteOffset":171920,"target":34962},{"buffer":0,"byteLength":112308,"byteOffset":235584,"target":34963},{"buffer":0,"byteLength":132492,"byteOffset":347892,"target":34962},{"buffer":0,"byteLength":88328,"byteOffset":480384,"target":34962},{"buffer":0,"byteLength":88596,"byteOffset":568712,"target":34963},{"buffer":0,"byteLength":102948,"byteOffset":657308,"target":34962},{"buffer":0,"byteLength":68632,"byteOffset":760256,"target":34962},{"buffer":0,"byteLength":80580,"byteOffset":828888,"target":34963},{"buffer":0,"byteLength":96756,"byteOffset":909468,"target":34962},{"buffer":0,"byteLength":64504,"byteOffset":1006224,"target":34962},{"buffer":0,"byteLength":91980,"byteOffset":1070728,"target":34963},{"buffer":0,"byteLength":108804,"byteOffset":1162708,"target":34962},{"buffer":0,"byteLength":72536,"byteOffset":1271512,"target":34962},{"buffer":0,"byteLength":80804,"byteOffset":1344048,"target":34963},{"buffer":0,"byteLength":95820,"byteOffset":1424852,"target":34962},{"buffer":0,"byteLength":63880,"byteOffset":1520672,"target":34962},{"buffer":0,"byteLength":114884,"byteOffset":1584552,"target":34963},{"buffer":0,"byteLength":138348,"byteOffset":1699436,"target":34962},{"buffer":0,"byteLength":92232,"byteOffset":1837784,"target":34962},{"buffer":0,"byteLength":151172,"byteOffset":1930016,"target":34963},{"buffer":0,"byteLength":189588,"byteOffset":2081188,"target":34962},{"buffer":0,"byteLength":126392,"byteOffset":2270776,"target":34962},{"buffer":0,"byteLength":15420,"byteOffset":2397168,"target":34963},{"buffer":0,"byteLength":21120,"byteOffset":2412588,"target":34962},{"buffer":0,"byteLength":14080,"byteOffset":2433708,"target":34962},{"buffer":0,"byteLength":5912,"byteOffset":2447788,"target":34963},{"buffer":0,"byteLength":8340,"byteOffset":2453700,"target":34962},{"buffer":0,"byteLength":5560,"byteOffset":2462040,"target":34962},{"buffer":0,"byteLength":26480,"byteOffset":2467600,"target":34963},{"buffer":0,"byteLength":32292,"byteOffset":2494080,"target":34962},{"buffer":0,"byteLength":21528,"byteOffset":2526372,"target":34962},{"buffer":0,"byteLength":39168,"byteOffset":2547900,"target":34963},{"buffer":0,"byteLength":47376,"byteOffset":2587068,"target":34962},{"buffer":0,"byteLength":31584,"byteOffset":2634444,"target":34962},{"buffer":0,"byteLength":40944,"byteOffset":2666028,"target":34963},{"buffer":0,"byteLength":48168,"byteOffset":2706972,"target":34962},{"buffer":0,"byteLength":32112,"byteOffset":2755140,"target":34962},{"buffer":0,"byteLength":47180,"byteOffset":2787252,"target":34963},{"buffer":0,"byteLength":55956,"byteOffset":2834432,"target":34962},{"buffer":0,"byteLength":37304,"byteOffset":2890388,"target":34962},{"buffer":0,"byteLength":48260,"byteOffset":2927692,"target":34963},{"buffer":0,"byteLength":58680,"byteOffset":2975952,"target":34962},{"buffer":0,"byteLength":39120,"byteOffset":3034632,"target":34962},{"buffer":0,"byteLength":48780,"byteOffset":3073752,"target":34963},{"buffer":0,"byteLength":63576,"byteOffset":3122532,"target":34962},{"buffer":0,"byteLength":42384,"byteOffset":3186108,"target":34962}],"buffers":[{"uri":"raw_geometry.bin","byteLength":3228492}],"images":[{"uri":"textures/a34c27785ab9b48b4771f90c0329490b.jpg"},{"uri":"textures/cacff8c69e652216511118b097fadbaf.jpg"},{"uri":"textures/13238b30e6d87b01a110f33063bf2856.jpg"},{"uri":"textures/a22aeeafd24dc7acb7428ad225fe3455.jpg"},{"uri":"textures/2f11e4e4193e51204aabc539fd02b13b.jpg"},{"uri":"textures/7ac496ae870f20f5d7ef3bd3cc07f090.jpg"},{"uri":"textures/4133a84bcb6062157b93d76843470dee.jpg"},{"uri":"textures/db91cf889c4bd18033fac4ccd8c35a39.jpg"}],"materials":[{"pbrMetallicRoughness":{"baseColorTexture":{"index":0},"metallicFactor":0}},{"pbrMetallicRoughness":{"baseColorTexture":{"index":1},"metallicFactor":0}},{"pbrMetallicRoughness":{"baseColorTexture":{"index":2},"metallicFactor":0}},{"pbrMetallicRoughness":{"baseColorTexture":{"index":3},"metallicFactor":0}},{"pbrMetallicRoughness":{"baseColorTexture":{"index":4},"metallicFactor":0}},{"pbrMetallicRoughness":{"baseColorTexture":{"index":5},"metallicFactor":0}},{"pbrMetallicRoughness":{"baseColorTexture":{"index":6},"metallicFactor":0}},{"pbrMetallicRoughness":{"baseColorTexture":{"index":7},"metallicFactor":0}}],"meshes":[{"primitives":[{"attributes":{"POSITION":1,"TEXCOORD_0":2},"indices":0,"material":0,"mode":4}]},{"primitives":[{"attributes":{"POSITION":4,"TEXCOORD_0":5},"indices":3,"material":1,"mode":4}]},{"primitives":[{"attributes":{"POSITION":7,"TEXCOORD_0":8},"indices":6,"material":2,"mode":4}]},{"primitives":[{"attributes":{"POSITION":10,"TEXCOORD_0":11},"indices":9,"material":3,"mode":4}]},{"primitives":[{"attributes":{"POSITION":13,"TEXCOORD_0":14},"indices":12,"material":4,"mode":4}]},{"primitives":[{"attributes":{"POSITION":16,"TEXCOORD_0":17},"indices":15,"material":5,"mode":4}]},{"primitives":[{"attributes":{"POSITION":19,"TEXCOORD_0":20},"indices":18,"material":6,"mode":4}]},{"primitives":[{"attributes":{"POSITION":22,"TEXCOORD_0":23},"indices":21,"material":7,"mode":4}]},{"primitives":[{"attributes":{"POSITION":25,"TEXCOORD_0":26},"indices":24,"material":0,"mode":4}]},{"primitives":[{"attributes":{"POSITION":28,"TEXCOORD_0":29},"indices":27,"material":1,"mode":4}]},{"primitives":[{"attributes":{"POSITION":31,"TEXCOORD_0":32},"indices":30,"material":2,"mode":4}]},{"primitives":[{"attributes":{"POSITION":34,"TEXCOORD_0":35},"indices":33,"material":3,"mode":4}]},{"primitives":[{"attributes":{"POSITION":37,"TEXCOORD_0":38},"indices":36,"material":4,"mode":4}]},{"primitives":[{"attributes":{"POSITION":40,"TEXCOORD_0":41},"indices":39,"material":5,"mode":4}]},{"primitives":[{"attributes":{"POSITION":43,"TEXCOORD_0":44},"indices":42,"material":6,"mode":4}]},{"primitives":[{"attributes":{"POSITION":46,"TEXCOORD_0":47},"indices":45,"material":7,"mode":4}]}],"nodes":[{"mesh":0},{"mesh":1},{"mesh":2},{"mesh":3},{"mesh":4},{"mesh":5},{"mesh":6},{"mesh":7},{"children":[0,1,2,3,4,5,6,7],"name":"Story 0"},{"mesh":8},{"mesh":9},{"mesh":10},{"mesh":11},{"mesh":12},{"mesh":13},{"mesh":14},{"mesh":15},{"children":[9,10,11,12,13,14,15,16],"name":"Story 1"},{"children":[8,17]}],"samplers":[{"wrapS":10497,"wrapT":10497}],"scene":0,"scenes":[{"nodes":[18]}],"textures":[{"sampler":0,"source":0},{"sampler":0,"source":1},{"sampler":0,"source":2},{"sampler":0,"source":3},{"sampler":0,"source":4},{"sampler":0,"source":5},{"sampler":0,"source":6},{"sampler":0,"source":7}]}