{"accessors":[{"bufferView":0,"componentType":5126,"count":38617,"max":[5.123734951019287,3.3447279930114746,4.177220344543457],"min":[-3.301658868789673,-2.238678216934204,-4.406172752380371],"type":"VEC3"},{"bufferView":1,"componentType":5125,"count":196614,"type":"SCALAR"},{"bufferView":2,"componentType":5126,"count":38617,"type":"VEC2"}],"asset":{"generator":"Polycam","version":"2.0"},"bufferViews":[{"buffer":0,"byteLength":463404,"byteOffset":0},{"buffer":0,"byteLength":786456,"byteOffset":463404},{"buffer":0,"byteLength":308936,"byteOffset":1249860}],"buffers":[{"uri":"raw_geometry.bin","byteLength":1558796}],"images":[{"uri":"textures/0a5f7ecf8240fd3ccbfb6bd5bbf3287a.jpg"}],"materials":[{"pbrMetallicRoughness":{"baseColorTexture":{"index":0},"metallicFactor":0}}],"meshes":[{"primitives":[{"attributes":{"POSITION":0,"TEXCOORD_0":2},"indices":1,"material":0,"mode":4}]}],"nodes":[{"mesh":0}],"scene":0,"scenes":[{"nodes":[0]}],"textures":[{"source":0}]}